<svg width="1000" height="500" viewBox="0 0 1000 500" fill="none" xmlns="http://www.w3.org/2000/svg">
  <g opacity="0.8">
    <!-- Amérique du Nord -->
    <circle cx="210" cy="140" r="2" fill="white" />
    <circle cx="220" cy="145" r="2" fill="white" />
    <circle cx="230" cy="150" r="2" fill="white" />
    <circle cx="240" cy="155" r="2" fill="white" />
    <circle cx="200" cy="160" r="2" fill="white" />
    <circle cx="210" cy="165" r="2" fill="white" />
    <circle cx="220" cy="170" r="2" fill="white" />
    <circle cx="230" cy="175" r="2" fill="white" />
    <circle cx="190" cy="180" r="2" fill="white" />
    <circle cx="200" cy="185" r="2" fill="white" />
    <circle cx="210" cy="190" r="2" fill="white" />
    <circle cx="220" cy="195" r="2" fill="white" />
    <circle cx="180" cy="200" r="2" fill="white" />
    <circle cx="190" cy="205" r="2" fill="white" />
    <circle cx="200" cy="210" r="2" fill="white" />
    <circle cx="210" cy="215" r="2" fill="white" />
    <circle cx="170" cy="220" r="2" fill="white" />
    <circle cx="180" cy="225" r="2" fill="white" />
    <circle cx="190" cy="230" r="2" fill="white" />
    <circle cx="160" cy="235" r="2" fill="white" />
    <circle cx="170" cy="240" r="2" fill="white" />
    
    <!-- Amérique du Sud -->
    <circle cx="270" cy="320" r="2" fill="white" />
    <circle cx="280" cy="330" r="2" fill="white" />
    <circle cx="290" cy="340" r="2" fill="white" />
    <circle cx="300" cy="350" r="2" fill="white" />
    <circle cx="310" cy="360" r="2" fill="white" />
    <circle cx="280" cy="370" r="2" fill="white" />
    <circle cx="290" cy="380" r="2" fill="white" />
    <circle cx="270" cy="390" r="2" fill="white" />
    <circle cx="280" cy="400" r="2" fill="white" />
    
    <!-- Europe -->
    <circle cx="480" cy="140" r="2" fill="white" />
    <circle cx="490" cy="145" r="2" fill="white" />
    <circle cx="470" cy="150" r="2" fill="white" />
    <circle cx="480" cy="155" r="2" fill="white" />
    <circle cx="460" cy="160" r="2" fill="white" />
    <circle cx="470" cy="165" r="2" fill="white" />
    <circle cx="450" cy="170" r="2" fill="white" />
    <circle cx="460" cy="175" r="2" fill="white" />
    <circle cx="470" cy="180" r="2" fill="white" />
    <circle cx="480" cy="185" r="2" fill="white" />
    <circle cx="490" cy="190" r="2" fill="white" />
    <circle cx="500" cy="195" r="2" fill="white" />
    
    <!-- Afrique -->
    <circle cx="480" cy="240" r="2" fill="white" />
    <circle cx="490" cy="250" r="2" fill="white" />
    <circle cx="500" cy="260" r="2" fill="white" />
    <circle cx="510" cy="270" r="2" fill="white" />
    <circle cx="490" cy="280" r="2" fill="white" />
    <circle cx="500" cy="290" r="2" fill="white" />
    <circle cx="510" cy="300" r="2" fill="white" />
    <circle cx="520" cy="310" r="2" fill="white" />
    <circle cx="490" cy="320" r="2" fill="white" />
    <circle cx="500" cy="330" r="2" fill="white" />
    
    <!-- Asie -->
    <circle cx="600" cy="140" r="2" fill="white" />
    <circle cx="610" cy="145" r="2" fill="white" />
    <circle cx="620" cy="150" r="2" fill="white" />
    <circle cx="630" cy="155" r="2" fill="white" />
    <circle cx="640" cy="160" r="2" fill="white" />
    <circle cx="650" cy="165" r="2" fill="white" />
    <circle cx="600" cy="170" r="2" fill="white" />
    <circle cx="610" cy="175" r="2" fill="white" />
    <circle cx="620" cy="180" r="2" fill="white" />
    <circle cx="630" cy="185" r="2" fill="white" />
    <circle cx="640" cy="190" r="2" fill="white" />
    <circle cx="580" cy="195" r="2" fill="white" />
    <circle cx="590" cy="200" r="2" fill="white" />
    <circle cx="600" cy="205" r="2" fill="white" />
    <circle cx="610" cy="210" r="2" fill="white" />
    <circle cx="620" cy="215" r="2" fill="white" />
    <circle cx="630" cy="220" r="2" fill="white" />
    <circle cx="640" cy="225" r="2" fill="white" />
    <circle cx="650" cy="230" r="2" fill="white" />
    <circle cx="660" cy="235" r="2" fill="white" />
    <circle cx="670" cy="240" r="2" fill="white" />
    <circle cx="680" cy="245" r="2" fill="white" />
    <circle cx="690" cy="250" r="2" fill="white" />
    <circle cx="700" cy="255" r="2" fill="white" />
    
    <!-- Australie -->
    <circle cx="780" cy="350" r="2" fill="white" />
    <circle cx="790" cy="355" r="2" fill="white" />
    <circle cx="800" cy="360" r="2" fill="white" />
    <circle cx="770" cy="365" r="2" fill="white" />
    <circle cx="780" cy="370" r="2" fill="white" />
    <circle cx="790" cy="375" r="2" fill="white" />
    <circle cx="760" cy="380" r="2" fill="white" />
    <circle cx="770" cy="385" r="2" fill="white" />
    <circle cx="780" cy="390" r="2" fill="white" />
    
    <!-- Points additionnels -->
    <circle cx="100" cy="100" r="1" fill="white" />
    <circle cx="150" cy="120" r="1" fill="white" />
    <circle cx="200" cy="80" r="1" fill="white" />
    <circle cx="250" cy="110" r="1" fill="white" />
    <circle cx="300" cy="90" r="1" fill="white" />
    <circle cx="350" cy="130" r="1" fill="white" />
    <circle cx="400" cy="70" r="1" fill="white" />
    <circle cx="450" cy="100" r="1" fill="white" />
    <circle cx="500" cy="80" r="1" fill="white" />
    <circle cx="550" cy="120" r="1" fill="white" />
    <circle cx="600" cy="90" r="1" fill="white" />
    <circle cx="650" cy="110" r="1" fill="white" />
    <circle cx="700" cy="130" r="1" fill="white" />
    <circle cx="750" cy="80" r="1" fill="white" />
    <circle cx="800" cy="100" r="1" fill="white" />
    <circle cx="850" cy="120" r="1" fill="white" />
    <circle cx="900" cy="90" r="1" fill="white" />
    
    <circle cx="100" cy="200" r="1" fill="white" />
    <circle cx="150" cy="220" r="1" fill="white" />
    <circle cx="200" cy="240" r="1" fill="white" />
    <circle cx="250" cy="260" r="1" fill="white" />
    <circle cx="300" cy="280" r="1" fill="white" />
    <circle cx="350" cy="300" r="1" fill="white" />
    <circle cx="400" cy="320" r="1" fill="white" />
    <circle cx="450" cy="340" r="1" fill="white" />
    <circle cx="500" cy="360" r="1" fill="white" />
    <circle cx="550" cy="380" r="1" fill="white" />
    <circle cx="600" cy="400" r="1" fill="white" />
    <circle cx="650" cy="420" r="1" fill="white" />
    <circle cx="700" cy="440" r="1" fill="white" />
    <circle cx="750" cy="460" r="1" fill="white" />
    <circle cx="800" cy="480" r="1" fill="white" />
    <circle cx="850" cy="420" r="1" fill="white" />
    <circle cx="900" cy="440" r="1" fill="white" />
    
    <circle cx="120" cy="150" r="1" fill="white" />
    <circle cx="170" cy="170" r="1" fill="white" />
    <circle cx="220" cy="190" r="1" fill="white" />
    <circle cx="270" cy="210" r="1" fill="white" />
    <circle cx="320" cy="230" r="1" fill="white" />
    <circle cx="370" cy="250" r="1" fill="white" />
    <circle cx="420" cy="270" r="1" fill="white" />
    <circle cx="470" cy="290" r="1" fill="white" />
    <circle cx="520" cy="310" r="1" fill="white" />
    <circle cx="570" cy="330" r="1" fill="white" />
    <circle cx="620" cy="350" r="1" fill="white" />
    <circle cx="670" cy="370" r="1" fill="white" />
    <circle cx="720" cy="390" r="1" fill="white" />
    <circle cx="770" cy="410" r="1" fill="white" />
    <circle cx="820" cy="430" r="1" fill="white" />
    <circle cx="870" cy="450" r="1" fill="white" />
    <circle cx="920" cy="470" r="1" fill="white" />
  </g>
</svg> 