<svg fill="none" xmlns="http://www.w3.org/2000/svg" viewBox="0 0 16 16"><g clipPath="url(#a)"><path fillRule="evenodd" clipRule="evenodd" d="M10.27 14.1a6.5 6.5 0 0 0 3.67-3.45q-1.24.21-2.7.34-.31 1.83-.97 3.1M8 16A8 8 0 1 0 8 0a8 8 0 0 0 0 16m.48-1.52a7 7 0 0 1-.96 0H7.5a4 4 0 0 1-.84-1.32q-.38-.89-.63-2.08a40 40 0 0 0 3.94 0q-.24 1.19-.63 2.08a4 4 0 0 1-.84 1.32M6.36 10.66a32.7 32.7 0 0 1 0-5.33c.62-.09 1.28-.16 1.96-.2.62-.04 1.26-.04 1.9 0 .67.04 1.33.11 1.96.2a32.8 32.8 0 0 1 0 5.33 28.2 28.2 0 0 1-5.82 0M12.14 5a25.3 25.3 0 0 0-8.28 0 18.6 18.6 0 0 0 0 5.99 25.3 25.3 0 0 0 8.28 0 18.6 18.6 0 0 0 0-5.99M5.73 14.1a5.7 5.7 0 0 1-.97-3.11q-1.47-.13-2.7-.34a6.5 6.5 0 0 0 3.67 3.45M2.06 9.38Q1.2 9.1.6 8.77a6.43 6.43 0 0 1-.1-1.54A6.5 6.5 0 0 1 .6 7.22q.72-.4 1.47-.65a19.2 19.2 0 0 0 0 2.81m.73-3.93q1.23-.21 2.7-.34a5.7 5.7 0 0 1 .97-3.1 6.5 6.5 0 0 0-3.67 3.44m10.65-3.44a5.7 5.7 0 0 1 .97 3.1q1.47.13 2.7.34a6.5 6.5 0 0 0-3.67-3.44M15.5 7.22q.72.34 0 1.55-.61.32-1.46.61a19.2 19.2 0 0 0 0-2.81q.74.25 1.46.65"/></g><defs><clipPath id="a"><path fill="#fff" d="M0 0h16v16H0z"/></clipPath></defs></svg>